<svg xmlns="http://www.w3.org/2000/svg"
    xmlns:xlink="http://www.w3.org/1999/xlink" width="794px" height="934px">
    <path fill-rule="evenodd" fill="rgb(200, 200, 200)" d="M773.909,930.257 L773.909,910.376 L793.545,910.376 L793.545,930.257 L773.909,930.257 ZM644.805,869.877 C645.622,885.259 650.163,897.574 658.427,906.817 C666.688,916.63 677.450,920.685 690.704,920.685 C698.558,920.685 706.2,918.763 713.40,914.917 C720.74,911.74 725.558,905.797 729.485,899.85 L740.39,906.203 C735.292,914.548 728.584,921.137 719.912,925.962 C711.237,930.786 701.504,933.203 690.704,933.203 C678.758,933.203 668.284,930.422 659.286,924.857 C650.285,919.296 643.332,911.442 638.423,901.294 C633.514,891.150 631.60,879.369 631.60,865.949 C631.60,852.369 633.430,840.423 638.178,830.114 C642.922,819.805 649.629,811.828 658.305,806.182 C666.976,800.537 677.120,797.714 688.740,797.714 C699.701,797.714 709.316,800.211 717.581,805.201 C725.842,810.194 732.223,817.228 736.726,826.309 C741.224,835.391 743.476,845.822 743.476,857.604 C743.476,861.370 743.65,865.458 742.248,869.877 L644.805,869.877 ZM718.194,823.241 C710.666,814.570 700.848,810.232 688.740,810.232 C676.794,810.232 666.895,814.489 659.41,822.996 C651.187,831.506 646.604,842.961 645.296,857.359 L729.485,857.359 C729.485,843.287 725.719,831.916 718.194,823.241 ZM576.571,618.291 C576.571,626.636 578.535,633.102 582.462,637.681 C586.389,642.264 591.705,644.554 598.416,644.554 C602.344,644.554 606.842,643.572 611.916,641.608 L611.916,654.372 C606.842,656.335 601.442,657.317 595.716,657.317 C585.408,657.317 577.346,654.46 571.540,647.499 C565.729,640.956 562.826,631.629 562.826,619.518 L562.826,537.783 L542.454,537.783 L542.454,525.20 L562.826,525.20 L562.826,486.729 L576.571,486.729 L576.571,525.20 L614.862,525.20 L614.862,537.783 L576.571,537.783 L576.571,618.291 ZM589.458,811.705 C597.719,821.32 601.853,833.880 601.853,850.241 L601.853,930.257 L588.354,930.257 L588.354,852.450 C588.354,839.686 585.40,829.462 578.413,821.768 C571.786,814.79 563.153,810.232 552.518,810.232 C544.173,810.232 536.809,812.196 530.428,816.123 C524.46,820.50 519.95,825.327 515.578,831.955 C512.57,838.582 510.301,845.907 510.301,853.922 L510.301,930.257 L496.801,930.257 L496.801,801.151 L510.301,801.151 L510.301,824.714 L511.282,824.714 C515.371,816.533 521.384,809.987 529.323,805.78 C537.258,800.169 545.971,797.714 555.463,797.714 C569.861,797.714 581.193,802.378 589.458,811.705 ZM507.111,576.319 C507.111,563.555 503.798,553.331 497.171,545.637 C490.543,537.948 481.911,534.101 471.276,534.101 C462.930,534.101 455.567,536.65 449.185,539.992 C442.803,543.919 437.852,549.196 434.335,555.824 C430.815,562.451 429.58,569.776 429.58,577.791 L429.58,654.126 L415.559,654.126 L415.559,525.20 L429.58,525.20 L429.58,548.583 L430.40,548.583 C434.128,540.402 440.142,533.856 448.81,528.947 C456.16,524.38 464.729,521.583 474.221,521.583 C488.618,521.583 499.951,526.247 508.216,535.574 C516.477,544.901 520.611,557.749 520.611,574.110 L520.611,654.126 L507.111,654.126 L507.111,576.319 ZM459.617,826.309 C464.116,835.391 466.367,845.822 466.367,857.604 C466.367,861.370 465.957,865.458 465.140,869.877 L367.696,869.877 C368.513,885.259 373.54,897.574 381.319,906.817 C389.580,916.63 400.341,920.685 413.595,920.685 C421.450,920.685 428.894,918.763 435.931,914.917 C442.965,911.74 448.449,905.797 452.377,899.85 L462.931,906.203 C458.183,914.548 451.475,921.137 442.804,925.962 C434.129,930.786 424.395,933.203 413.595,933.203 C401.649,933.203 391.175,930.422 382.178,924.857 C373.177,919.296 366.224,911.442 361.315,901.294 C356.406,891.150 353.951,879.369 353.951,865.949 C353.951,852.369 356.321,840.423 361.69,830.114 C365.813,819.805 372.521,811.828 381.196,806.182 C389.867,800.537 400.11,797.714 411.632,797.714 C422.593,797.714 432.207,800.211 440.472,805.201 C448.733,810.194 455.115,817.228 459.617,826.309 ZM381.932,822.996 C374.78,831.506 369.495,842.961 368.187,857.359 L452.377,857.359 C452.377,843.287 448.610,831.916 441.86,823.241 C433.557,814.570 423.739,810.232 411.632,810.232 C399.685,810.232 389.787,814.489 381.932,822.996 ZM286.454,593.746 C287.271,609.128 291.812,621.443 300.76,630.686 C308.337,639.932 319.99,644.554 332.353,644.554 C340.208,644.554 347.652,642.632 354.689,638.786 C361.723,634.943 367.207,629.666 371.134,622.954 L381.689,630.72 C376.941,638.417 370.233,645.6 361.562,649.831 C352.887,654.655 343.153,657.72 332.353,657.72 C320.407,657.72 309.933,654.291 300.936,648.726 C291.934,643.165 284.981,635.311 280.72,625.163 C275.163,615.19 272.709,603.238 272.709,589.818 C272.709,576.238 275.79,564.292 279.827,553.983 C284.571,543.674 291.279,535.697 299.954,530.51 C308.625,524.406 318.769,521.583 330.390,521.583 C341.350,521.583 350.965,524.80 359.230,529.70 C367.491,534.63 373.873,541.97 378.375,550.178 C382.874,559.260 385.125,569.691 385.125,581.473 C385.125,585.239 384.714,589.327 383.898,593.746 L286.454,593.746 ZM359.844,547.110 C352.315,538.439 342.497,534.101 330.390,534.101 C318.443,534.101 308.544,538.358 300.690,546.865 C292.836,555.375 288.253,566.830 286.945,581.228 L371.134,581.228 C371.134,567.156 367.368,555.785 359.844,547.110 ZM192.0,383.999 C85.961,383.999 0.0,298.38 0.0,191.999 C0.0,85.961 85.961,0.0 192.0,0.0 C250.132,0.0 302.231,25.835 337.440,66.650 C341.644,71.524 345.601,76.594 349.298,81.870 C350.80,82.985 350.850,84.109 351.608,85.243 C364.728,104.866 373.720,121.264 378.999,143.999 C297.855,163.162 233.731,194.452 157.999,220.999 C144.588,225.863 99.802,254.848 91.0,257.999 C84.76,260.478 132.360,260.23 172.200,249.57 C173.464,248.709 174.730,248.357 175.999,247.999 C261.833,223.848 383.630,178.903 383.841,184.116 C383.946,186.731 383.999,189.359 383.999,191.999 C383.999,298.38 298.38,383.999 192.0,383.999 ZM42.972,637.190 C51.969,641.773 61.707,644.63 72.181,644.63 C81.343,644.63 89.608,642.510 96.971,639.399 C104.335,636.293 110.103,631.997 114.275,626.513 C118.448,621.33 120.534,614.854 120.534,607.982 C120.534,600.783 118.816,594.812 115.380,590.64 C111.944,585.320 106.582,581.147 99.303,577.546 C92.20,573.948 82.79,570.347 69.481,566.746 C57.369,563.310 47.390,559.751 39.536,556.69 C31.681,552.387 25.215,547.275 20.145,540.728 C15.71,534.186 12.536,525.675 12.536,515.202 C12.536,505.384 15.71,496.712 20.145,489.184 C25.215,481.659 32.418,475.769 41.745,471.512 C51.72,467.258 61.787,465.130 73.899,465.130 C86.332,465.130 97.462,467.707 107.280,472.862 C117.98,478.16 125.278,485.257 131.825,494.584 L120.534,502.684 C114.644,494.994 107.648,489.61 99.548,484.889 C91.449,480.716 82.735,478.630 73.408,478.630 C64.898,478.630 57.86,480.144 49.967,483.170 C42.849,486.200 37.204,490.411 33.31,495.811 C28.859,501.211 26.772,507.267 26.772,513.974 C26.772,521.994 28.939,528.540 33.277,533.610 C37.611,538.684 43.95,542.654 49.722,545.515 C56.349,548.380 65.143,551.367 76.108,554.474 C89.362,558.75 100.200,562.44 108.630,566.378 C117.56,570.715 123.560,576.158 128.143,582.700 C132.722,589.247 135.16,597.347 135.16,607.0 C135.16,622.548 129.371,634.858 118.80,643.940 C106.789,653.22 91.406,657.562 71.935,657.562 C58.681,657.562 46.531,654.698 35.486,648.972 C24.441,643.246 15.562,635.227 8.855,624.918 L20.636,617.309 C26.527,625.984 33.971,632.611 42.972,637.190 ZM42.972,913.321 C51.969,917.904 61.707,920.194 72.181,920.194 C81.343,920.194 89.608,918.641 96.971,915.530 C104.335,912.424 110.103,908.128 114.275,902.644 C118.448,897.164 120.534,890.985 120.534,884.113 C120.534,876.914 118.816,870.943 115.380,866.195 C111.944,861.451 106.582,857.278 99.303,853.677 C92.20,850.80 82.79,846.478 69.481,842.877 C57.369,839.441 47.390,835.882 39.536,832.200 C31.681,828.518 25.215,823.406 20.145,816.859 C15.71,810.317 12.536,801.806 12.536,791.333 C12.536,781.515 15.71,772.843 20.145,765.315 C25.215,757.790 32.418,751.900 41.745,747.643 C51.72,743.389 61.787,741.261 73.899,741.261 C86.332,741.261 97.462,743.838 107.280,748.993 C117.98,754.147 125.278,761.388 131.825,770.715 L120.534,778.815 C114.644,771.125 107.648,765.192 99.548,761.20 C91.449,756.847 82.735,754.761 73.408,754.761 C64.898,754.761 57.86,756.276 49.967,759.301 C42.849,762.331 37.204,766.542 33.31,771.942 C28.859,777.342 26.772,783.398 26.772,790.105 C26.772,798.125 28.939,804.671 33.277,809.741 C37.611,814.815 43.95,818.785 49.722,821.646 C56.349,824.511 65.143,827.498 76.108,830.605 C89.362,834.206 100.200,838.175 108.630,842.509 C117.56,846.846 123.560,852.289 128.143,858.831 C132.722,865.378 135.16,873.478 135.16,883.131 C135.16,898.679 129.371,910.989 118.80,920.71 C106.789,929.153 91.406,933.694 71.935,933.694 C58.681,933.694 46.531,930.829 35.486,925.103 C24.441,919.377 15.562,911.358 8.855,901.49 L20.636,893.440 C26.527,902.115 33.971,908.742 42.972,913.321 ZM181.649,654.372 L167.904,654.372 L167.904,525.20 L181.649,525.20 L181.649,654.372 ZM164.468,475.684 C164.468,472.413 165.365,469.836 167.168,467.953 C168.966,466.73 171.421,465.130 174.531,465.130 C177.803,465.130 180.422,466.112 182.386,468.75 C184.349,470.39 185.331,472.578 185.331,475.684 C185.331,478.794 184.349,481.291 182.386,483.170 C180.422,485.53 177.803,485.993 174.531,485.993 C171.421,485.993 168.966,485.53 167.168,483.170 C165.365,481.291 164.468,478.794 164.468,475.684 ZM220.921,635.227 L220.921,468.566 L234.421,468.566 L234.421,631.790 C234.421,639.154 238.102,642.836 245.466,642.836 L253.320,642.836 L253.320,655.599 L242.520,655.599 C228.119,655.599 220.921,648.811 220.921,635.227 ZM186.558,806.182 C195.230,800.537 205.374,797.714 216.994,797.714 C227.955,797.714 237.570,800.211 245.834,805.201 C254.95,810.194 260.477,817.228 264.980,826.309 C269.478,835.391 271.729,845.822 271.729,857.604 C271.729,861.370 271.319,865.458 270.502,869.877 L173.59,869.877 C173.875,885.259 178.416,897.574 186.681,906.817 C194.942,916.63 205.703,920.685 218.958,920.685 C226.812,920.685 234.256,918.763 241.294,914.917 C248.327,911.74 253.812,905.797 257.739,899.85 L268.293,906.203 C263.545,914.548 256.837,921.137 248.166,925.962 C239.491,930.786 229.757,933.203 218.958,933.203 C207.11,933.203 196.537,930.422 187.540,924.857 C178.539,919.296 171.586,911.442 166.677,901.294 C161.768,891.150 159.313,879.369 159.313,865.949 C159.313,852.369 161.684,840.423 166.431,830.114 C171.176,819.805 177.883,811.828 186.558,806.182 ZM257.739,857.359 C257.739,843.287 253.973,831.916 246.448,823.241 C238.920,814.570 229.102,810.232 216.994,810.232 C205.48,810.232 195.149,814.489 187.295,822.996 C179.440,831.506 174.857,842.961 173.549,857.359 L257.739,857.359 ZM315.663,907.921 C315.663,915.285 319.345,918.967 326.708,918.967 L334.563,918.967 L334.563,931.730 L323.763,931.730 C309.362,931.730 302.163,924.942 302.163,911.358 L302.163,744.697 L315.663,744.697 L315.663,907.921 Z"/>
</svg>