<svg 
 xmlns="http://www.w3.org/2000/svg"
 xmlns:xlink="http://www.w3.org/1999/xlink"
 width="1491px" height="1095px">
<path fill-rule="evenodd"  fill="rgb(29, 29, 29)"
 d="M1464.426,1089.916 L1464.426,1062.431 L1491.9,1062.431 L1491.9,1089.916 L1464.426,1089.916 ZM1398.301,982.349 C1398.301,964.704 1393.815,950.569 1384.843,939.934 C1375.871,929.303 1364.183,923.985 1349.785,923.985 C1338.487,923.985 1328.518,926.700 1319.878,932.129 C1311.238,937.558 1304.535,944.854 1299.774,954.16 C1295.7,963.177 1292.629,973.304 1292.629,984.385 L1292.629,1089.916 L1274.353,1089.916 L1274.353,833.385 L1292.629,833.385 L1292.629,944.5 L1293.959,944.5 C1299.493,932.696 1307.635,923.646 1318.383,916.859 C1329.125,910.73 1340.922,906.680 1353.773,906.680 C1373.264,906.680 1388.607,913.127 1399.796,926.21 C1410.980,938.916 1416.577,956.677 1416.577,979.295 L1416.577,1089.916 L1398.301,1089.916 L1398.301,982.349 ZM1138.112,1067.690 C1147.194,1074.137 1157.718,1077.361 1169.681,1077.361 C1180.91,1077.361 1189.785,1074.705 1198.757,1069.387 C1207.729,1064.74 1214.874,1056.779 1220.190,1047.500 L1234.479,1057.680 C1228.51,1069.217 1219.79,1078.326 1207.563,1084.996 C1196.42,1091.666 1183.856,1095.6 1171.10,1095.6 C1154.837,1095.6 1140.714,1091.45 1128.642,1083.129 C1116.565,1075.214 1107.260,1064.127 1100.729,1049.875 C1094.192,1035.624 1090.926,1019.225 1090.926,1000.673 C1090.926,982.349 1094.192,966.120 1100.729,951.980 C1107.260,937.845 1116.565,926.928 1128.642,919.235 C1140.714,911.547 1154.837,907.698 1171.10,907.698 C1183.856,907.698 1196.42,911.91 1207.563,917.877 C1219.79,924.664 1228.51,933.714 1234.479,945.23 L1220.190,955.203 C1214.874,945.930 1207.729,938.635 1198.757,933.317 C1189.785,928.4 1180.200,925.343 1170.13,925.343 C1158.50,925.343 1147.526,928.513 1138.445,934.844 C1129.358,941.180 1122.271,950.60 1117.178,961.481 C1112.79,972.907 1109.535,985.971 1109.535,1000.673 C1109.535,1015.603 1112.27,1028.895 1117.11,1040.544 C1121.996,1052.198 1129.26,1061.243 1138.112,1067.690 ZM924.447,1006.442 C925.552,1027.708 931.700,1044.732 942.889,1057.510 C954.73,1070.293 968.642,1076.682 986.587,1076.682 C997.220,1076.682 1007.298,1074.26 1016.826,1068.708 C1026.348,1063.395 1033.773,1056.100 1039.90,1046.821 L1053.379,1056.662 C1046.951,1068.199 1037.870,1077.308 1026.130,1083.978 C1014.386,1090.648 1001.208,1093.988 986.587,1093.988 C970.413,1093.988 956.233,1090.144 944.52,1082.451 C931.866,1074.763 922.453,1063.904 915.807,1049.875 C909.161,1035.852 905.838,1019.564 905.838,1001.12 C905.838,982.238 909.47,965.722 915.474,951.471 C921.897,937.219 930.978,926.191 942.723,918.386 C954.463,910.582 968.196,906.680 983.928,906.680 C998.767,906.680 1011.784,910.131 1022.973,917.29 C1034.157,923.932 1042.797,933.656 1048.893,946.211 C1054.983,958.766 1058.31,973.188 1058.31,989.475 C1058.31,994.682 1057.476,1000.334 1056.370,1006.442 L924.447,1006.442 ZM1023.804,941.970 C1013.612,929.982 1000.320,923.985 983.928,923.985 C967.755,923.985 954.354,929.870 943.720,941.630 C933.86,953.395 926.882,969.232 925.111,989.136 L1039.90,989.136 C1039.90,969.683 1033.991,953.963 1023.804,941.970 ZM835.725,1063.788 L835.725,833.385 L854.2,833.385 L854.2,1059.37 C854.2,1069.217 858.986,1074.307 868.955,1074.307 L879.589,1074.307 L879.589,1091.952 L864.967,1091.952 C845.471,1091.952 835.725,1082.567 835.725,1063.788 ZM769.268,982.349 C769.268,964.704 765.281,950.569 757.306,939.934 C749.330,929.303 738.697,923.985 725.405,923.985 C715.654,923.985 706.962,926.477 699.319,931.450 C691.677,936.429 685.695,943.497 681.375,952.658 C677.55,961.820 674.895,972.398 674.895,984.385 L674.895,1089.916 L656.287,1089.916 L656.287,982.349 C656.287,964.932 652.242,950.850 644.158,940.103 C636.68,929.361 625.492,923.985 612.423,923.985 C603.337,923.985 594.863,926.589 587.2,931.790 C579.136,936.996 572.931,944.175 568.393,953.337 C563.850,962.499 561.581,972.848 561.581,984.385 L561.581,1089.916 L543.305,1089.916 L543.305,911.430 L561.913,911.430 L561.581,942.648 L562.910,942.648 C568.445,931.790 575.922,923.84 585.341,916.520 C594.754,909.961 604.889,906.680 615.746,906.680 C628.150,906.680 638.784,910.412 647.647,917.877 C656.505,925.343 663.265,935.978 667.917,949.774 L668.914,949.774 C674.8,936.429 681.926,925.910 692.673,918.217 C703.416,910.529 715.545,906.680 729.60,906.680 C747.222,906.680 761.569,913.185 772.93,926.191 C782.612,939.202 787.877,956.900 787.877,979.295 L787.877,1089.916 L769.268,1089.916 L769.268,982.349 ZM634.687,689.480 L633.358,689.480 C627.376,700.794 618.955,709.500 608.103,715.608 C597.246,721.716 585.283,724.770 572.215,724.770 C554.935,724.770 541.420,720.475 531.674,711.875 C521.923,703.281 517.53,691.632 517.53,676.925 C517.53,639.599 546.960,620.936 606.774,620.936 L634.687,620.936 L634.687,600.916 C634.687,586.213 630.533,574.734 622.226,566.474 C613.918,558.219 602.340,554.88 587.500,554.88 C572.433,554.88 557.147,560.424 541.643,573.91 L530.677,559.857 C538.870,552.620 547.900,546.963 557.759,542.891 C567.614,538.819 577.973,536.783 588.829,536.783 C608.986,536.783 624.718,542.159 636.16,552.901 C647.314,563.648 652.963,578.520 652.963,597.522 L652.963,720.19 L634.687,720.19 L634.687,689.480 ZM634.687,638.242 L610.97,638.242 C560.470,638.242 535.662,650.797 535.662,675.907 C535.662,685.636 539.203,693.329 546.295,698.981 C553.382,704.638 563.19,707.464 575.205,707.464 C585.174,707.464 594.754,705.206 603.949,700.678 C613.139,696.155 620.564,689.650 626.213,681.166 C631.862,672.683 634.687,662.901 634.687,651.815 L634.687,638.242 ZM464.555,1082.960 C452.810,1090.764 439.186,1094.667 423.682,1094.667 C408.396,1094.667 394.881,1090.764 383.141,1082.960 C371.397,1075.155 362.258,1064.127 355.727,1049.875 C349.190,1035.624 345.924,1019.225 345.924,1000.673 C345.924,982.127 349.190,965.722 355.727,951.471 C362.258,937.219 371.397,926.191 383.141,918.386 C394.881,910.582 408.396,906.680 423.682,906.680 C439.186,906.680 452.810,910.582 464.555,918.386 C476.294,926.191 485.432,937.219 491.969,951.471 C498.501,965.722 501.772,982.127 501.772,1000.673 C501.772,1019.225 498.501,1035.624 491.969,1049.875 C485.432,1064.127 476.294,1075.155 464.555,1082.960 ZM475.687,960.633 C470.702,949.95 463.724,940.162 454.752,933.826 C445.780,927.495 435.421,924.325 423.682,924.325 C411.937,924.325 401.636,927.495 392.778,933.826 C383.915,940.162 376.994,949.95 372.9,960.633 C367.25,972.170 364.532,985.520 364.532,1000.673 C364.532,1015.831 367.25,1029.177 372.9,1040.714 C376.994,1052.251 383.915,1061.190 392.778,1067.520 C401.636,1073.856 411.937,1077.22 423.682,1077.22 C435.421,1077.22 445.780,1073.856 454.752,1067.520 C463.724,1061.190 470.702,1052.251 475.687,1040.714 C480.671,1029.177 483.163,1015.831 483.163,1000.673 C483.163,985.520 480.671,972.170 475.687,960.633 ZM409.722,720.19 L341.933,541.533 L361.871,541.533 L419.359,695.588 L420.688,695.588 L478.176,541.533 L498.114,541.533 L429.660,720.19 L409.722,720.19 ZM325.498,396.271 L346.838,374.777 C346.838,374.777 369.875,375.480 400.816,364.526 C395.18,331.486 373.733,271.652 308.865,229.942 C310.552,226.64 310.774,216.952 312.945,206.464 C396.321,256.811 416.243,322.115 424.667,378.414 C403.998,393.900 317.998,401.246 325.498,396.271 ZM354.684,221.14 C349.893,192.247 336.912,174.955 335.227,170.873 C311.497,132.871 276.845,117.130 275.913,117.182 C225.769,92.392 177.58,109.907 177.58,109.907 C177.58,109.907 179.773,99.168 188.984,84.445 C233.764,73.21 323.189,92.632 360.19,170.873 C372.303,196.969 374.937,209.886 377.51,223.669 C378.171,230.978 378.134,238.76 379.476,245.814 C379.591,246.502 362.145,225.856 354.684,221.14 ZM217.175,29.223 C196.570,44.325 178.941,77.832 178.941,77.832 C178.941,77.832 153.18,118.873 152.894,180.10 C152.894,180.702 134.869,187.131 132.181,187.946 C127.966,119.10 161.995,63.282 161.995,63.282 C161.995,63.282 184.730,24.414 217.175,0.4 C266.939,41.114 281.876,82.131 281.876,82.131 C281.876,82.131 260.129,73.233 252.690,73.233 C252.535,73.233 240.341,48.823 217.175,29.223 ZM76.320,244.103 C70.328,306.372 115.483,359.729 119.649,360.224 C122.859,360.877 93.208,362.528 93.267,362.542 C93.267,362.542 50.411,313.255 55.12,244.103 C59.612,174.950 98.128,127.862 129.671,107.923 C132.112,106.380 126.235,115.706 122.767,141.652 C121.256,140.740 79.934,181.75 76.320,244.103 ZM117.118,373.123 C159.305,369.17 190.239,347.0 190.239,347.0 L207.813,362.542 C207.813,362.542 150.373,397.768 101.344,396.932 C31.845,395.24 10.103,377.753 10.103,377.753 C10.103,377.753 11.239,357.441 19.832,331.789 C30.117,301.336 44.310,278.881 44.310,278.881 C44.310,278.881 50.375,304.317 52.156,309.634 C42.395,325.946 33.478,361.155 33.640,363.203 C33.802,365.252 72.174,379.668 117.118,373.123 ZM27.252,701.356 L156.849,701.356 L156.849,720.19 L7.979,720.19 L7.979,463.488 L27.252,463.488 L27.252,701.356 ZM53.5,844.922 C69.952,834.64 89.610,828.634 111.988,828.634 C128.157,828.634 143.391,832.197 157.680,839.323 C171.968,846.449 183.651,856.348 192.737,869.14 L177.451,880.551 C169.918,870.372 160.115,862.286 148.43,856.290 C135.966,850.298 123.837,847.297 111.656,847.297 C93.265,847.297 77.97,851.937 63.140,861.210 C49.184,870.488 38.436,883.664 30.907,900.741 C23.373,917.824 19.609,937.675 19.609,960.293 C19.609,983.367 23.373,1003.674 30.907,1021.202 C38.436,1038.736 49.184,1052.251 63.140,1061.752 C77.97,1071.253 93.265,1076.4 111.656,1076.4 C124.501,1076.4 136.745,1073.119 148.375,1067.351 C160.6,1061.582 169.694,1053.269 177.451,1042.410 L192.405,1054.287 C183.765,1066.958 172.410,1076.852 158.344,1083.978 C144.273,1091.104 128.821,1094.667 111.988,1094.667 C89.610,1094.667 69.952,1089.126 53.5,1078.40 C36.58,1066.958 22.984,1051.291 13.794,1031.43 C4.598,1010.800 0.3,987.217 0.3,960.293 C0.3,933.826 4.598,910.698 13.794,890.901 C22.984,871.109 36.58,855.781 53.5,844.922 ZM270.159,620.936 L298.72,620.936 L298.72,600.916 C298.72,586.213 293.918,574.734 285.611,566.474 C277.303,558.219 265.725,554.88 250.886,554.88 C235.818,554.88 220.532,560.424 205.28,573.91 L194.62,559.857 C202.256,552.620 211.285,546.963 221.145,542.891 C231.0,538.819 241.358,536.783 252.215,536.783 C272.371,536.783 288.103,542.159 299.401,552.901 C310.700,563.648 316.349,578.520 316.349,597.522 L316.349,720.19 L298.72,720.19 L298.72,689.480 L296.743,689.480 C290.762,700.794 282.340,709.500 271.488,715.608 C260.631,721.716 248.669,724.770 235.600,724.770 C218.320,724.770 204.805,720.475 195.59,711.875 C185.308,703.281 180.438,691.632 180.438,676.925 C180.438,639.599 210.345,620.936 270.159,620.936 ZM209.680,698.981 C216.768,704.638 226.404,707.464 238.590,707.464 C248.559,707.464 258.139,705.206 267.334,700.678 C276.525,696.155 283.949,689.650 289.598,681.166 C295.248,672.683 298.72,662.901 298.72,651.815 L298.72,638.242 L273.482,638.242 C223.855,638.242 199.47,650.797 199.47,675.907 C199.47,685.636 202.588,693.329 209.680,698.981 ZM354.684,287.479 C354.684,287.479 365.574,302.0 370.61,311.287 C356.172,347.255 338.992,366.152 338.992,366.152 C338.992,366.152 309.840,400.75 278.738,410.820 C203.396,442.637 142.224,403.876 142.224,403.876 L172.665,394.287 C172.665,394.287 222.565,413.171 274.972,387.673 C277.376,386.153 304.463,376.432 327.381,344.685 C344.850,326.279 354.684,287.479 354.684,287.479 ZM87.618,259.702 C86.834,259.83 88.986,228.890 90.129,228.288 C91.272,227.686 174.278,159.714 269.323,190.592 C268.228,201.269 266.499,212.85 266.499,212.85 C266.499,212.85 177.824,176.858 87.618,259.702 ZM287.839,366.152 C286.674,369.606 260.549,380.960 260.850,380.729 C178.207,345.189 147.677,268.513 139.713,236.225 C140.619,235.922 159.503,227.541 159.484,227.627 C157.572,231.80 187.257,337.952 287.839,366.152 ZM300.392,148.265 C314.110,262.722 249.94,321.865 242.648,331.128 C240.341,330.677 226.15,320.267 226.15,317.333 C226.15,314.398 300.441,251.529 275.913,131.732 C288.319,136.981 299.546,146.463 300.392,148.265 ZM251.221,951.131 L252.551,951.131 C259.415,938.237 268.885,927.606 280.962,919.235 C293.34,910.868 306.934,906.680 322.666,906.680 L325.657,906.680 L325.657,927.39 L321.337,927.39 C307.598,927.39 295.417,930.93 284.784,936.201 C274.150,942.309 265.895,950.2 260.27,959.275 C254.155,968.554 251.221,977.715 251.221,986.761 L251.221,1089.916 L232.945,1089.916 L232.945,911.430 L251.221,911.430 L251.221,951.131 Z"/>
</svg>